<svg xmlns="http://www.w3.org/2000/svg" xmlns:xlink="http://www.w3.org/1999/xlink" width="212" height="212" viewBox="0 0 212 212" version="1.1">
    <!-- Generator: Sketch 64 (93537) - https://sketch.com -->
    <title>boy</title>
    <desc>Created with Sketch.</desc>
    <defs>
        <path d="M29.5356692,0 L116.588168,0 C132.900267,-2.99648409e-15 146.123837,13.2235695 146.123837,29.5356692 L146.123837,114 L146.123837,114 L0,114 L0,29.5356692 C-1.99765606e-15,13.2235695 13.2235695,6.54919777e-15 29.5356692,0 Z" id="path-1"/>
        <path d="M8.22639382,0 C12.7697057,-8.34592848e-16 16.4527876,3.68308197 16.4527876,8.22639382 L16.4527876,18.5588844 C16.4527876,23.1021962 12.7697057,26.7852782 8.22639382,26.7852782 C3.68308197,26.7852782 -4.91139174e-13,23.1021962 -4.89919212e-13,18.5588844 L-4.89919212e-13,8.22639382 C-4.90475607e-13,3.68308197 3.68308197,8.34592848e-16 8.22639382,0 Z" id="path-3"/>
    </defs>
    <g id="boy" stroke="none" stroke-width="1" fill="none" fill-rule="evenodd">
        <g id="Path-6-Copy-4" transform="translate(67.100000, 127.909091)">
            <g id="Oval-4" transform="translate(10.171954, -4.839442)"/>
        </g>
        <g id="Group-13-Copy" transform="translate(16.000000, 4.000000)">
            <path d="M89.6097094,25.6493969 C102.273896,25.6493969 112.535612,35.9420134 112.535612,48.6285516 L112.535612,52.0760483 L66.6775991,52.0760483 L66.6775991,48.6285516 C66.6775991,35.9420134 76.9455229,25.6493969 89.6097094,25.6493969 Z" id="Path-Copy-32" fill="#FF9600"/>
            <path d="M65.1262008,48.189776 C78.6448588,48.189776 89.6066054,37.4014842 89.6066054,24.094888 C89.6066054,10.7882918 78.6448588,0 65.1262008,0 C51.6013216,0 40.6395749,10.7882918 40.6395749,24.094888 C40.6395749,37.4014842 51.6013216,48.189776 65.1262008,48.189776 Z" id="Path-Copy-38" fill="#FF9600" fill-rule="nonzero"/>
            <g id="Rectangle" transform="translate(17.710569, 47.801149)">
                <mask id="mask-2" fill="white">
                    <use xlink:href="#path-1"/>
                </mask>
                <use id="Mask" fill="#FFC6B7" xlink:href="#path-1"/>
                <rect id="Rectangle-Copy-7" fill="#FF9600" opacity="0.331519717" mask="url(#mask-2)" x="-94.0477886" y="-39.2513498" width="114.256404" height="90.9387708" rx="17.4882252"/>
                <rect id="Rectangle-Copy-11" fill="#FF9600" opacity="0.331519717" mask="url(#mask-2)" x="129.412866" y="-39.2513498" width="114.256404" height="90.9387708" rx="17.4882252"/>
            </g>
            <circle id="Oval" fill="#FFC6B7" cx="167.526364" cy="105.123665" r="13.0190121"/>
            <circle id="Oval-Copy-3" fill="#FFC6B7" cx="13.2413555" cy="105.123665" r="13.0190121"/>
            <g id="Group-8-Copy-2" transform="translate(50.743883, 62.568983)">
                <g id="Group-7">
                    <path d="M18.3237487,0 C28.4436756,-1.85900042e-15 36.6474974,8.20382172 36.6474974,18.3237487 L36.6474974,29.4695908 C36.6474974,39.5895178 28.4436756,47.7933395 18.3237487,47.7933395 C8.20382172,47.7933395 1.23933362e-15,39.5895178 0,29.4695908 L0,18.3237487 C2.31338006e-15,8.20382172 8.20382172,1.85900042e-15 18.3237487,0 Z" id="Rectangle-130-Copy-42" fill="#FFFFFF"/>
                    <path d="M23.3828556,10.8815623 C27.9261675,10.8815623 31.6092495,14.5646443 31.6092495,19.1079561 L31.6092495,29.4404467 C31.6092495,33.9837585 27.9261675,37.6668405 23.3828556,37.6668405 C18.8395438,37.6668405 15.1564618,33.9837585 15.1564618,29.4404467 L15.1564618,19.1079561 C15.1564618,14.5646443 18.8395438,10.8815623 23.3828556,10.8815623 Z" id="Combined-Shape" fill="#3D3D3D"/>
                </g>
                <g id="Group-7-Copy-3" transform="translate(61.283852, 24.000000) scale(-1, 1) translate(-61.283852, -24.000000) translate(42.783852, 0.000000)">
                    <path d="M18.3237487,0 C28.4436756,-1.85900042e-15 36.6474974,8.20382172 36.6474974,18.3237487 L36.6474974,29.4695908 C36.6474974,39.5895178 28.4436756,47.7933395 18.3237487,47.7933395 C8.20382172,47.7933395 1.23933362e-15,39.5895178 0,29.4695908 L0,18.3237487 C2.31338006e-15,8.20382172 8.20382172,1.85900042e-15 18.3237487,0 Z" id="Rectangle-130-Copy-42" fill="#FFFFFF"/>
                    <g id="Oval-Copy-23" transform="translate(13.990580, 10.881562)">
                        <mask id="mask-4" fill="white">
                            <use xlink:href="#path-3"/>
                        </mask>
                        <use id="Mask" fill="#3D3D3D" xlink:href="#path-3"/>
                    </g>
                </g>
            </g>
            <path d="M40.2509477,104.930971 C59.6443081,104.829521 76.4848212,109.492508 90.7724871,118.919931" id="Path-3" stroke="#FFC6B7" stroke-width="8.16117174"/>
            <path d="M74.277641,123.608267 C80.1880525,128.167477 86.098464,128.159207 92.0088755,123.583458" id="Path-4" stroke="#EE9583" stroke-width="3.88627226" stroke-linecap="round" stroke-linejoin="round" transform="translate(83.143258, 125.302470) scale(-1, 1) rotate(-21.000000) translate(-83.143258, -125.302470) "/>
            <circle id="Oval-Copy-20" fill="#FFFFFF" transform="translate(66.288972, 75.782309) scale(-1, 1) translate(-66.288972, -75.782309) " cx="66.2889719" cy="75.782309" r="6.60666284"/>
            <path d="M90.1895462,118.142677 C94.1602547,118.142677 97.3791499,114.916595 97.3791499,110.937022 C97.3791499,106.957449 90.1895462,97.5454337 90.1895462,97.5454337 C90.1895462,97.5454337 82.9999426,106.957449 82.9999426,110.937022 C82.9999426,114.916595 86.2188378,118.142677 90.1895462,118.142677 Z" id="Oval-Copy-19" fill="#EE9583"/>
        </g>
        <rect id="Rectangle" fill="#2FE3FF" x="34" y="162" width="146" height="46" rx="6"/>
        <path d="M30.990178,157.896381 L181.777542,157.896381 C189.933591,157.896381 196.545376,164.508166 196.545376,172.664216 L196.545376,173.830098 C196.545376,181.986148 189.933591,188.597932 181.777542,188.597932 L30.990178,188.597932 C22.8341282,188.597932 16.2223435,181.986148 16.2223435,173.830098 L16.2223435,172.664216 C16.2223435,164.508166 22.8341282,157.896381 30.990178,157.896381 Z" id="Rectangle" fill="#2FE3FF"/>
        <rect id="Rectangle" fill="#FFFFFF" x="90.0615164" y="169.555198" width="8.16117174" height="31.8674325" rx="4.08058587"/>
        <rect id="Rectangle-Copy-142" fill="#FFFFFF" x="114.933659" y="169.555198" width="8.16117174" height="31.8674325" rx="4.08058587"/>
        <path d="M111.816431,84.4538044 C113.012011,85.6494462 114.663727,86.3889719 116.488168,86.3889719 C120.136927,86.3889719 123.094831,83.4310682 123.094831,79.782309 C123.094831,76.1335499 120.136927,73.1756462 116.488168,73.1756462 C112.576677,79.8973775 111.019431,83.6567635 111.816431,84.4538044 Z" id="Path" fill="#FFFFFF"/>
    </g>
<style xmlns="" class="darkreader darkreader--fallback">html, body, body :not(iframe) {
    background-color: #191b1c !important;
    border-color: #7d7467 !important;
    color: #f4f2ee !important;
}
div[style*="background-color: rgb(135, 135, 135)"] {
    background-color: #878787 !important;
}</style></svg>