<svg xmlns="http://www.w3.org/2000/svg" xmlns:xlink="http://www.w3.org/1999/xlink" width="212" height="212" viewBox="0 0 212 212" version="1.1">
    <!-- Generator: Sketch 64 (93537) - https://sketch.com -->
    <title>man</title>
    <desc>Created with Sketch.</desc>
    <defs>
        <path d="M7.62041758,0 C11.829058,-7.73114702e-16 15.2408352,3.41177716 15.2408352,7.62041758 L15.2408352,17.1917916 C15.2408352,21.4004321 11.829058,24.8122092 7.62041758,24.8122092 C3.41177716,24.8122092 -4.8496291e-13,21.4004321 -4.89919212e-13,17.1917916 L-4.89919212e-13,7.62041758 C-4.89546443e-13,3.41177716 3.41177716,7.73114702e-16 7.62041758,0 Z" id="path-1"/>
    </defs>
    <g id="man" stroke="none" stroke-width="1" fill="none" fill-rule="evenodd">
        <g id="Group-23" transform="translate(34.000000, 4.000000)">
            <g id="Rectangle-Copy-13">
                <path d="M71.6399992,0 L73.0799992,0 C112.645678,-7.26809733e-15 144.719998,32.0743202 144.719998,71.6399992 L144.719998,74.5199991 C144.719998,114.085678 112.645678,146.159998 73.0799992,146.159998 L71.6399992,146.159998 C32.0743202,146.159998 4.84539822e-15,114.085678 0,74.5199991 L0,71.6399992 C-4.84539822e-15,32.0743202 32.0743202,7.26809733e-15 71.6399992,0 Z" id="Mask" fill="#0084C2"/>
                <path d="M120.403091,17.8539124 L45.1736932,80.9790878 L40.777026,75.7393439 L114.948768,13.5017507 C116.838062,14.8647321 118.658256,16.3175387 120.403091,17.8539124 Z" id="Path" fill="#006AAD"/>
            </g>
            <polygon id="Rectangle-Copy-10" fill="#C6775C" points="24.1199997 83.5627933 72.3326683 50.0399994 119.879999 83.5627933 119.879999 188.639998 24.1199997 188.639998"/>
            <path d="M38.8799995,113.759999 C39.5482152,113.759999 58.6586851,116.156146 67.6799992,123.839999" id="Path-2-Copy" stroke="#C6775C" stroke-width="7.55999991"/>
            <path d="M39.0599995,124.559999 L104.579999,124.559999 C126.152241,124.559999 143.639998,142.047756 143.639998,163.619998 C143.639998,185.19224 126.152241,202.679998 104.579999,202.679998 L39.0599995,202.679998 C17.4877575,202.679998 2.64183772e-15,185.19224 0,163.619998 C-2.64183772e-15,142.047756 17.4877575,124.559999 39.0599995,124.559999 Z" id="Rectangle-Copy-9" fill="#3D3D3D"/>
            <path d="M41.6423448,131.080367 C38.4235485,133.0575 36.3039306,136.158201 35.4828045,139.575813 C34.6629443,142.988156 35.1383985,146.714787 37.1016729,149.947177 C43.1269815,159.867415 53.196835,165.120822 65.3412257,165.760872 C69.1173233,165.959886 72.6170156,164.602503 75.221637,162.244064 C77.8174678,159.893585 79.5237898,156.547956 79.721076,152.762279 C79.9171663,148.99955 78.5869089,145.512463 76.2503774,142.902846 C73.9395412,140.321927 70.6394055,138.593816 66.7757103,138.32843 C63.8198607,138.172647 61.6593764,137.505132 60.4529737,135.627418 C58.4831344,132.395849 55.3973676,130.272058 52.0010319,129.446813 C48.5931563,128.618764 44.8709108,129.097233 41.6423448,131.080367 Z" id="Path-Copy-193" stroke="#3D3D3D" stroke-width="8.2799999" fill="#FFFFFF" fill-rule="nonzero"/>
            <circle id="Oval-Copy-2" fill="#C6775C" cx="71.9999992" cy="122.759999" r="11.1599999"/>
            <g id="Group-4-Copy-3" transform="translate(34.200000, 75.599999)">
                <g id="Group-7">
                    <path d="M16.9739766,0 C26.3484451,-1.72206191e-15 33.9479533,7.59950819 33.9479533,16.9739766 L33.9479533,27.2987889 C33.9479533,36.6732573 26.3484451,44.2727655 16.9739766,44.2727655 C7.59950819,44.2727655 4.70075495e-15,36.6732573 0,27.2987889 L0,16.9739766 C-1.14804128e-15,7.59950819 7.59950819,1.72206191e-15 16.9739766,0 Z" id="Rectangle-130-Copy-42" fill="#FFFFFF"/>
                    <path d="M21.6604174,10.0799999 C25.8690578,10.0799999 29.280835,13.491777 29.280835,17.7004175 L29.280835,27.2717915 C29.280835,31.4804319 25.8690578,34.8922091 21.6604174,34.8922091 C17.451777,34.8922091 14.0399998,31.4804319 14.0399998,27.2717915 L14.0399998,17.7004175 C14.0399998,13.491777 17.451777,10.0799999 21.6604174,10.0799999 Z" id="Combined-Shape" fill="#3D3D3D"/>
                </g>
                <g id="Group-7-Copy-3" transform="translate(58.706778, 22.500000) scale(-1, 1) translate(-58.706778, -22.500000) translate(41.706778, 0.000000)">
                    <path d="M16.9739766,0 C26.3484451,-1.72206191e-15 33.9479533,7.59950819 33.9479533,16.9739766 L33.9479533,27.2987889 C33.9479533,36.6732573 26.3484451,44.2727655 16.9739766,44.2727655 C7.59950819,44.2727655 4.70075495e-15,36.6732573 0,27.2987889 L0,16.9739766 C-1.14804128e-15,7.59950819 7.59950819,1.72206191e-15 16.9739766,0 Z" id="Rectangle-130-Copy-42" fill="#FFFFFF"/>
                    <g id="Oval-Copy-20" transform="translate(12.960000, 10.080000)">
                        <mask id="mask-2" fill="white">
                            <use xlink:href="#path-1"/>
                        </mask>
                        <use id="Mask" fill="#3D3D3D" xlink:href="#path-1"/>
                    </g>
                </g>
            </g>
        </g>
        <path d="M115.599999,85.7199991 C118.979982,85.7199991 121.719999,88.4600164 121.719999,91.839999 C121.719999,95.2199816 118.979982,97.9599989 115.599999,97.9599989 C114.343539,97.9599989 113.175515,97.5813634 112.203804,96.9319703 C111.108954,96.2002838 112.241019,92.4629601 115.599999,85.7199991 Z" id="Path" fill="#FFFFFF"/>
        <path d="M82.9599994,97.2399989 C79.5800168,97.2399989 76.8399995,94.4999816 76.8399995,91.119999 C76.8399995,87.7400164 79.5800168,84.9999991 82.9599994,84.9999991 C86.3399821,84.9999991 89.0799994,87.7400164 89.0799994,91.119999 C89.0799994,94.4999816 86.3399821,97.2399989 82.9599994,97.2399989 Z" id="Oval-Copy-20" fill="#FFFFFF"/>
    </g>
<style xmlns="" class="darkreader darkreader--fallback">html, body, body :not(iframe) {
    background-color: #191b1c !important;
    border-color: #7d7467 !important;
    color: #f4f2ee !important;
}
div[style*="background-color: rgb(135, 135, 135)"] {
    background-color: #878787 !important;
}</style></svg>