<svg viewBox="0 0 326 326" fill="none" xmlns="http://www.w3.org/2000/svg"><g clip-path="url(#clip0)"><path opacity="0.3" fill-rule="evenodd" clip-rule="evenodd" d="M233.02 263.35H118.747C115.953 263.35 113.578 265.577 113.578 268.5C113.578 271.284 115.813 273.65 118.747 273.65H233.02C235.814 273.65 238.189 271.423 238.189 268.5C238.189 265.577 235.814 263.35 233.02 263.35Z" fill="#AFAFAF"/><path fill-rule="evenodd" clip-rule="evenodd" d="M172.535 254.861C172.535 250.268 168.764 246.371 164.014 246.371H150.463C145.853 246.371 141.941 250.129 141.941 254.861C141.941 259.454 145.713 263.351 150.463 263.351H164.014C168.764 263.351 172.535 259.593 172.535 254.861Z" fill="#F49000"/><path fill-rule="evenodd" clip-rule="evenodd" d="M218.357 258.618C220.453 254.443 218.776 249.433 214.725 247.345L206.483 243.17C202.292 241.082 197.263 242.752 195.167 246.788C193.072 250.964 194.748 255.974 198.8 258.062L207.042 262.237C211.233 264.464 216.262 262.794 218.357 258.618Z" fill="#F49000"/><path fill-rule="evenodd" clip-rule="evenodd" d="M223.805 255C223.805 250.407 220.033 246.649 215.423 246.649H212.769C208.159 246.649 204.387 250.407 204.387 255C204.387 259.593 208.159 263.351 212.769 263.351H215.423C220.033 263.351 223.805 259.593 223.805 255Z" fill="#F49000"/><path d="M154.647 163.143L206.195 62.3789C208.989 56.951 216.254 55.8376 220.584 60.1521C241.26 80.7503 246.428 112.761 232.878 139.344C219.327 165.927 190.13 180.54 161.212 175.947C155.205 174.973 151.853 168.571 154.647 163.143Z" fill="#58CC02"/><path d="M74.181 237.324L96.5327 132.663C97.79 127.096 104.076 124.313 109.106 127.096C133.134 140.875 145.707 168.849 139.839 196.406C133.972 223.963 110.782 244.701 83.2614 247.484C77.5337 248.041 72.9237 243.031 74.181 237.324Z" fill="#58CC02"/><path fill-rule="evenodd" clip-rule="evenodd" d="M149.062 79.0802C136.908 92.9979 127.967 101.348 122.24 104.132C116.652 106.916 104.638 108.725 86.4768 109.56C74.4628 110.117 65.2427 120.416 65.8015 132.524C65.9412 135.447 66.6396 138.37 68.0366 141.014L97.6527 201.417C113.439 233.706 152.554 247.067 185.104 231.34C217.514 215.613 230.925 176.782 215.139 144.633V144.493L185.244 83.8122C179.935 72.9564 166.803 68.5027 155.907 73.7914C153.392 75.044 151.018 76.8533 149.062 79.0802Z" fill="#58CC02"/><path d="M186.503 181.793C186.363 180.958 185.525 180.54 184.687 180.819L170.018 187.917C169.18 188.334 169.041 189.308 169.599 189.865C172.533 192.788 177.003 193.484 180.915 191.674C184.826 189.865 187.062 185.829 186.503 181.793ZM159.122 193.623L144.454 200.721C143.615 201.138 143.476 202.113 144.034 202.669C146.968 205.592 151.439 206.288 155.35 204.479C159.262 202.53 161.497 198.494 160.938 194.458C160.798 193.762 159.82 193.344 159.122 193.623ZM178.121 199.747L163.453 206.845C162.614 207.262 162.475 208.236 163.033 208.793C165.967 211.716 170.438 212.412 174.349 210.602C178.261 208.654 180.496 204.618 179.937 200.582C179.797 199.886 178.819 199.329 178.121 199.747Z" fill="#89E219"/><path d="M147.245 92.7195L139.003 120.416C138.584 121.947 139.701 123.338 141.238 123.338C148.642 123.06 155.068 118.05 157.164 110.813C159.259 103.575 156.465 95.7814 150.318 91.7453C149.061 90.9102 147.664 91.3277 147.245 92.7195Z" fill="#89E219"/><path fill-rule="evenodd" clip-rule="evenodd" d="M140.68 114.709C138.026 124.034 127.269 129.323 118.328 125.565C125.732 140.736 136.768 163.143 136.768 163.143C136.768 163.004 144.172 159.385 159.26 152.287C153.812 141.153 147.525 128.627 140.68 114.709Z" fill="#89E219"/><path d="M158.138 92.9979L150.175 120.416C149.756 121.947 150.873 123.338 152.41 123.338C159.814 123.06 166.24 118.05 168.336 110.813C170.431 103.575 167.637 95.9206 161.49 91.7453C160.233 90.771 158.557 91.4669 158.138 92.9979Z" fill="#89E219"/><path d="M97.6518 117.215L124.474 128.21C125.871 128.766 126.29 130.576 125.312 131.828C120.423 137.395 112.46 139.205 105.475 136.282C98.49 133.359 94.299 126.261 94.9975 119.024C94.9975 117.354 96.2548 116.658 97.6518 117.215Z" fill="#89E219"/><path d="M91.2271 125.287L117.63 136.421C119.027 136.978 119.446 138.787 118.468 140.04C113.579 145.607 105.616 147.416 98.6311 144.493C91.6462 141.571 87.4553 134.473 88.1537 127.235C88.1537 125.565 89.8301 124.73 91.2271 125.287Z" fill="#89E219"/><path fill-rule="evenodd" clip-rule="evenodd" d="M154.791 99.8175L152.975 100.653C140.821 106.498 135.792 120.972 141.799 133.081L149.622 148.947C155.49 160.916 170.018 165.927 182.172 160.081L183.988 159.246C196.142 153.401 201.171 138.926 195.164 126.818L187.341 110.952C181.473 98.9825 166.945 93.9721 154.791 99.8175Z" fill="#89E219"/><path fill-rule="evenodd" clip-rule="evenodd" d="M97.9317 126.818L96.1156 127.653C83.9619 133.498 78.9327 147.973 84.9398 160.081L92.7629 175.947C98.6302 187.917 113.159 192.927 125.313 187.082L126.989 186.246C139.003 180.401 144.032 165.927 138.305 153.957L130.621 137.952C124.754 125.983 110.225 120.972 97.9317 126.818C97.9317 126.818 98.0714 126.818 97.9317 126.818Z" fill="#89E219"/><path fill-rule="evenodd" clip-rule="evenodd" d="M102.261 135.725C93.3206 140.04 89.6885 150.756 94.0191 159.524L98.7689 169.128C103.1 178.035 113.856 181.654 122.797 177.339C131.738 173.025 135.37 162.308 131.039 153.54L126.289 143.937C121.819 135.168 111.062 131.411 102.261 135.725Z" fill="white"/><path fill-rule="evenodd" clip-rule="evenodd" d="M109.389 143.38C105.198 145.468 103.521 150.478 105.477 154.653L109.528 162.865C111.624 167.04 116.653 168.71 120.844 166.762C125.035 164.674 126.711 159.664 124.756 155.488L120.704 147.277C118.749 142.962 113.719 141.292 109.389 143.38Z" fill="#4B4B4B"/><path d="M105.613 154.375C108.545 154.375 110.922 152.007 110.922 149.086C110.922 146.165 108.545 143.797 105.613 143.797C102.681 143.797 100.305 146.165 100.305 149.086C100.305 152.007 102.681 154.375 105.613 154.375Z" fill="white"/><path fill-rule="evenodd" clip-rule="evenodd" d="M159.539 107.751C150.598 112.065 146.966 122.782 151.296 131.55L156.046 141.153C160.377 150.06 171.134 153.679 180.074 149.365C189.015 145.05 192.647 134.333 188.317 125.565L183.567 115.962C179.236 107.055 168.479 103.436 159.539 107.751Z" fill="white"/><path fill-rule="evenodd" clip-rule="evenodd" d="M161.635 118.328C157.444 120.416 155.768 125.426 157.723 129.601L161.775 137.813C163.87 141.988 168.899 143.658 173.09 141.71C177.281 139.622 178.957 134.612 177.002 130.436L172.95 122.225C170.995 118.05 165.965 116.38 161.635 118.328Z" fill="#4B4B4B"/><path d="M157.582 129.88C160.514 129.88 162.891 127.512 162.891 124.591C162.891 121.67 160.514 119.302 157.582 119.302C154.65 119.302 152.273 121.67 152.273 124.591C152.273 127.512 154.65 129.88 157.582 129.88Z" fill="white"/><path d="M100.586 178.87L92.9023 163.282C109.526 160.081 123.357 161.195 139.003 166.205L134.672 176.643C133.275 180.123 129.503 181.932 125.871 180.958C118.607 178.87 111.482 178.731 104.078 180.54C102.821 180.958 101.284 180.123 100.586 178.87Z" fill="#89E219"/><path d="M194.743 136.56L189.016 119.72C174.906 129.184 165.826 139.622 158.422 154.236L172.671 160.22C174.208 160.916 176.024 160.22 176.722 158.689C180.494 150.617 186.082 144.354 193.626 139.761C194.604 139.205 195.163 137.813 194.743 136.56Z" fill="#89E219"/><path fill-rule="evenodd" clip-rule="evenodd" d="M143.753 148.808C139.143 151.035 137.327 156.463 139.563 161.055L140.68 163.282C142.915 167.875 148.503 169.684 152.974 167.458C157.584 165.231 159.4 159.803 157.165 155.21L156.047 152.983C153.951 148.39 148.364 146.581 143.753 148.808Z" fill="#F49000"/><path d="M159.539 152.426C156.047 147.694 149.202 145.885 143.195 148.947C137.746 151.591 134.952 157.993 136.629 163.7L136.908 164.396L149.341 160.777L159.958 153.261L159.539 152.426Z" fill="#FFC200"/><path d="M143.476 156.045C143.057 156.045 142.499 155.906 142.219 155.488C141.521 154.792 141.521 153.679 142.219 152.983C143.896 151.313 145.991 150.2 148.366 149.921C149.344 149.782 150.322 150.478 150.322 151.591C150.461 152.566 149.763 153.54 148.645 153.54C147.109 153.679 145.851 154.375 144.734 155.488C144.315 155.906 143.896 156.045 143.476 156.045Z" fill="#FFDE00"/></g><defs><clipPath id="clip0"><rect width="174.623" height="216.142" fill="white" transform="translate(65.8008 57.5078)"/></clipPath></defs></svg>