<svg xmlns:xlink="http://www.w3.org/1999/xlink" xmlns="http://www.w3.org/2000/svg" width="212" height="212" viewBox="0 0 212 212" fill="none">
<path d="M73.5645 185.972H140.06V204.292H73.5645V185.972Z" fill="white"/>
<path fill-rule="evenodd" clip-rule="evenodd" d="M143.23 57.2722C143.23 84.6457 121.04 106.836 93.6662 106.836H66.3972C39.0236 106.836 16.833 84.6457 16.833 57.2722C16.833 29.8986 39.0236 7.70801 66.3972 7.70801H93.6662C121.04 7.70801 143.23 29.8986 143.23 57.2722Z" fill="#3D3D3D"/>
<path fill-rule="evenodd" clip-rule="evenodd" d="M141.88 204.292H88.8454C82.5222 198.168 78.3135 189.874 77.4204 180.61C86.4995 177.137 96.3555 175.235 106.655 175.235C123.266 175.235 138.721 180.181 151.628 188.681C149.685 194.672 146.299 200.012 141.88 204.292Z" fill="#FFCBA3"/>
<path fill-rule="evenodd" clip-rule="evenodd" d="M72.4458 55.2056H140.746C168.447 55.2056 190.903 77.6619 190.903 105.363V108.209C190.903 135.91 168.447 158.367 140.746 158.367H72.4458C44.7444 158.367 22.2881 135.91 22.2881 108.209V105.363C22.2881 77.6619 44.7444 55.2056 72.4458 55.2056Z" fill="#FFCBA3"/>
<path fill-rule="evenodd" clip-rule="evenodd" d="M185.805 83.3049L160.967 83.3058C151.013 83.3058 142.943 75.2364 142.943 65.2824V55.2529C161.794 56.0656 177.947 67.2822 185.805 83.3049Z" fill="#D6C5B9"/>
<path fill-rule="evenodd" clip-rule="evenodd" d="M87.284 66.4031C96.4846 66.4031 103.943 73.8616 103.943 83.0621V93.3411C103.943 102.542 96.4846 110 87.284 110C78.0835 110 70.625 102.542 70.625 93.3411V83.0621C70.625 73.8616 78.0835 66.4031 87.284 66.4031Z" fill="#E99B5F"/>
<path fill-rule="evenodd" clip-rule="evenodd" d="M87.284 72.4287C96.4846 72.4287 103.943 79.8872 103.943 89.0877V99.3667C103.943 108.567 96.4846 116.026 87.284 116.026C78.0835 116.026 70.625 108.567 70.625 99.3667V89.0877C70.625 79.8872 78.0835 72.4287 87.284 72.4287Z" fill="white"/>
<path fill-rule="evenodd" clip-rule="evenodd" d="M91.9511 82.3533C96.0949 82.3533 99.454 85.7124 99.454 89.8562V99.2799C99.454 103.424 96.0949 106.783 91.9511 106.783C87.8074 106.783 84.4482 103.424 84.4482 99.2799V89.8562C84.4482 85.7124 87.8074 82.3533 91.9511 82.3533Z" fill="#3D3D3D"/>
<path fill-rule="evenodd" clip-rule="evenodd" d="M126.563 66.4031C135.764 66.4031 143.222 73.8616 143.222 83.0621V93.3411C143.222 102.542 135.764 110 126.563 110C117.363 110 109.904 102.542 109.904 93.3411V83.0621C109.904 73.8616 117.363 66.4031 126.563 66.4031Z" fill="#E99B5F"/>
<path fill-rule="evenodd" clip-rule="evenodd" d="M126.563 72.4287C135.764 72.4287 143.222 79.8872 143.222 89.0877V99.3667C143.222 108.567 135.764 116.026 126.563 116.026C117.363 116.026 109.904 108.567 109.904 99.3667V89.0877C109.904 79.8872 117.363 72.4287 126.563 72.4287Z" fill="white"/>
<path fill-rule="evenodd" clip-rule="evenodd" d="M123.129 82.3567C127.273 82.3567 130.632 85.7159 130.632 89.8596V99.2833C130.632 103.427 127.273 106.786 123.129 106.786C118.985 106.786 115.626 103.427 115.626 99.2833V89.8596C115.626 85.7159 118.985 82.3567 123.129 82.3567Z" fill="#3D3D3D"/>
<path fill-rule="evenodd" clip-rule="evenodd" d="M88.7469 72.5786C97.132 72.5786 103.929 79.376 103.929 87.7611V90.6354H73.5645V87.7611C73.5645 79.376 80.3619 72.5786 88.7469 72.5786Z" fill="#E99B5F"/>
<path fill-rule="evenodd" clip-rule="evenodd" d="M126.742 71.1558C136.006 71.1558 143.515 78.6651 143.515 87.9283V90.6354H109.97V87.9283C109.97 78.6651 117.479 71.1558 126.742 71.1558Z" fill="#E99B5F"/>
<path fill-rule="evenodd" clip-rule="evenodd" d="M106.817 123.106C110.695 123.106 113.839 119.964 113.839 116.087C113.839 112.211 106.817 103.043 106.817 103.043L106.158 103.93C104.411 106.323 99.7949 112.944 99.7949 116.087C99.7949 119.964 102.939 123.106 106.817 123.106Z" fill="#E99B5F"/>
<path d="M194.277 119.493C202.403 119.493 208.99 112.906 208.99 104.78C208.99 96.6541 202.403 90.0669 194.277 90.0669C186.152 90.0669 179.564 96.6541 179.564 104.78C179.564 112.906 186.152 119.493 194.277 119.493Z" fill="#FFCBA3"/>
<path d="M17.7227 119.493C25.8484 119.493 32.4356 112.906 32.4356 104.78C32.4356 96.6541 25.8484 90.0669 17.7227 90.0669C9.59697 90.0669 3.00977 96.6541 3.00977 104.78C3.00977 112.906 9.59697 119.493 17.7227 119.493Z" fill="#FFCBA3"/>
<path fill-rule="evenodd" clip-rule="evenodd" d="M143.946 105.548C142.177 105.548 124.53 108.486 117.618 113.603C113.01 117.015 117.535 117.792 131.194 115.936L150.65 113.603C147.361 108.233 145.126 105.548 143.946 105.548Z" fill="#FFCBA3"/>
<path d="M19.3946 127.417C23.2728 127.417 26.4167 124.274 26.4167 120.395C26.4167 116.517 23.2728 113.373 19.3946 113.373C15.5164 113.373 12.3726 116.517 12.3726 120.395C12.3726 124.274 15.5164 127.417 19.3946 127.417Z" fill="#C86902"/>
<path fill-rule="evenodd" clip-rule="evenodd" d="M79.6982 148.171H133.406V179.938H79.6982V148.171Z" fill="#FFCBA3"/>
<path fill-rule="evenodd" clip-rule="evenodd" d="M89.7184 60.6912V64.0351C89.7184 84.3494 73.2504 100.817 52.9361 100.817C32.6218 100.817 16.1538 84.3494 16.1538 64.0351V60.6912C16.1538 40.3769 32.6218 23.9089 52.9361 23.9089C73.2504 23.9089 89.7184 40.3769 89.7184 60.6912Z" fill="#3D3D3D"/>
<path d="M159.152 194.276C160.463 195.372 161.183 197.009 161.183 198.717V199.292C161.183 202.053 158.945 204.292 156.183 204.292H133.42V179.709C142.909 182.99 151.607 187.966 159.152 194.276Z" fill="#C86902"/>
<path d="M53.9522 194.276C52.6415 195.372 51.9207 197.009 51.9207 198.717V199.292C51.9207 202.053 54.1592 204.292 56.9207 204.292H79.6841V179.709C70.1947 182.99 61.4967 187.966 53.9522 194.276Z" fill="#C86902"/>
<path fill-rule="evenodd" clip-rule="evenodd" d="M128.898 123.785C130.236 124.366 130.849 125.921 130.268 127.259C128.002 132.477 124.185 135.131 120.321 136.21C116.58 137.255 112.883 136.809 110.536 136.057C109.147 135.612 108.381 134.125 108.826 132.736C109.271 131.347 110.758 130.582 112.147 131.027C113.697 131.524 116.327 131.842 118.901 131.123C121.353 130.438 123.84 128.801 125.424 125.155C126.005 123.817 127.56 123.204 128.898 123.785Z" fill="#E99B5F"/>
<style xmlns="" class="darkreader darkreader--fallback">html, body, body :not(iframe) {
    background-color: #191b1c !important;
    border-color: #7d7467 !important;
    color: #f4f2ee !important;
}
div[style*="background-color: rgb(135, 135, 135)"] {
    background-color: #878787 !important;
}</style></svg>