<svg viewBox="0 0 120 120" fill="none" xmlns="http://www.w3.org/2000/svg"><rect width="120" height="120" rx="40" fill="#50C800"/><path fill-rule="evenodd" clip-rule="evenodd" d="M50.6995 38.5181L33.4671 20.0449C32.4922 18.9772 31.1421 19.157 30.4142 20.3985C28.8304 23.1058 28.1364 26.1545 28.2881 29.1699C28.2708 29.1711 28.2535 29.1726 28.2361 29.1741C28.2092 29.1765 28.1822 29.1788 28.1548 29.18L24.164 24.808C23.1891 23.7402 21.4433 23.92 20.7155 25.1625C19.4945 27.2486 18.8098 29.5396 18.6252 31.8621C11.4052 35.7108 6.5 43.2397 6.5 51.897V66.581C6.5 79.1537 16.8436 89.3464 29.6034 89.3464H31.3338C40.8931 89.3464 49.0962 83.6248 52.6093 75.4665C55.3696 75.4542 57.8332 75.4448 60 75.4384C62.1668 75.4448 64.6304 75.4542 67.3907 75.4665C70.9038 83.6248 79.1069 89.3464 88.6662 89.3464H90.3966C103.156 89.3464 113.5 79.1537 113.5 66.581V51.897C113.5 43.2397 108.595 35.7108 101.375 31.8621C101.19 29.5396 100.505 27.2486 99.2845 25.1625C98.5567 23.92 96.8109 23.7402 95.836 24.808L91.8452 29.18C91.8178 29.1788 91.7908 29.1765 91.7639 29.1741C91.7465 29.1726 91.7292 29.1711 91.7119 29.1699C91.8636 26.1545 91.1696 23.1058 89.5858 20.3985C88.8579 19.157 87.5078 18.9772 86.5329 20.0449L69.3005 38.5181C66.5618 40.4208 63.2788 41.3727 60 41.3788C56.7212 41.3727 53.4382 40.4208 50.6995 38.5181Z" fill="#8EE000"/><path fill-rule="evenodd" clip-rule="evenodd" d="M31.0697 39.0493C40.1286 39.0493 47.4812 46.3918 47.4812 55.4608V65.1798C47.4812 74.2386 40.1387 81.5913 31.0697 81.5913C22.0109 81.5913 14.6582 74.2488 14.6582 65.1798V55.4608C14.6582 46.3918 22.0109 39.0493 31.0697 39.0493Z" fill="white"/><path fill-rule="evenodd" clip-rule="evenodd" d="M88.7233 39.0493C97.7821 39.0493 105.135 46.3918 105.135 55.4608V65.1798C105.135 74.2386 97.7923 81.5913 88.7233 81.5913C79.6645 81.5913 72.3118 74.2488 72.3118 65.1798V55.4608C72.3118 46.3918 79.6543 39.0493 88.7233 39.0493Z" fill="white"/><path fill-rule="evenodd" clip-rule="evenodd" d="M33.5985 48.4741C37.8943 48.4741 41.3878 51.9575 41.3878 56.2635V64.581C41.3878 68.8768 37.9044 72.3703 33.5985 72.3703C29.3026 72.3703 25.8091 68.887 25.8091 64.581V56.2635C25.8091 51.9575 29.3026 48.4741 33.5985 48.4741Z" fill="#4B4B4B"/><path fill-rule="evenodd" clip-rule="evenodd" d="M60.0038 67.356C64.9293 67.356 68.9205 71.3471 68.9205 76.2726V79.3701C68.9205 84.2956 64.9293 88.2868 60.0038 88.2868C55.0783 88.2868 51.0872 84.2956 51.0872 79.3701V76.2726C51.0872 71.3471 55.0783 67.356 60.0038 67.356Z" fill="#F48000"/><path d="M47.6951 77.1255C48.7614 71.4383 54.0322 67.3354 60.3388 67.3354C66.0768 67.3354 71.2663 71.5399 72.3123 77.1255V77.5825C72.3123 77.938 72.1905 78.0801 71.8655 78.0395L60.349 80.0909C60.0342 80.0909 59.9936 80.0909 59.6686 80.0909L48.1419 78.0294C47.8169 78.07 47.6951 77.9278 47.6951 77.5723V77.1255Z" fill="#FFC200"/><path fill-rule="evenodd" clip-rule="evenodd" d="M58.1148 69.3059C58.714 69.1638 59.3335 69.0825 59.953 69.0825C60.6131 69.0825 61.2833 69.1638 61.9435 69.3364C63.284 69.6817 64.2183 70.8902 64.2183 72.2714C64.2183 73.3885 63.3145 74.2822 62.2075 74.2822H57.8C56.6828 74.2822 55.7891 73.3784 55.7891 72.2714C55.779 70.8699 56.7438 69.6411 58.1148 69.3059Z" fill="#FFE747"/><path fill-rule="evenodd" clip-rule="evenodd" d="M86.1944 48.4741C90.4903 48.4741 93.9838 51.9575 93.9838 56.2635V64.581C93.9838 68.8768 90.5004 72.3703 86.1944 72.3703C81.8986 72.3703 78.405 68.887 78.405 64.581V56.2635C78.4152 51.9575 81.8986 48.4741 86.1944 48.4741Z" fill="#4B4B4B"/><path d="M27.0175 57.9187C29.7939 57.9187 32.0446 55.6771 32.0446 52.912C32.0446 50.1469 29.7939 47.9053 27.0175 47.9053C24.2412 47.9053 21.9905 50.1469 21.9905 52.912C21.9905 55.6771 24.2412 57.9187 27.0175 57.9187Z" fill="white"/><path d="M78.8517 57.9187C81.6281 57.9187 83.8788 55.6771 83.8788 52.912C83.8788 50.1469 81.6281 47.9053 78.8517 47.9053C76.0754 47.9053 73.8247 50.1469 73.8247 52.912C73.8247 55.6771 76.0754 57.9187 78.8517 57.9187Z" fill="white"/></svg>