<svg width="37" height="36" viewBox="0 0 37 36" fill="none" xmlns="http://www.w3.org/2000/svg"><path fill-rule="evenodd" clip-rule="evenodd" d="M8.90819 23.1726C6.56372 21.4586 5 18.6834 5 15.5195C5 10.1756 9.40556 6 14.6448 6C16.0889 6 17.4658 6.3152 18.7032 6.88227C19.9406 6.3152 21.3175 6 22.7616 6C28.0009 6 32.4064 10.1756 32.4064 15.5195C32.4064 18.4921 31.024 21.1263 28.9108 22.8536L22.6226 28.5149C20.4903 30.4346 17.2603 30.4597 15.0984 28.5735L8.90819 23.1726ZM9.53227 22.39C7.41019 20.8543 6 18.3598 6 15.5195C6 10.7512 9.93429 7 14.6448 7C16.107 7 17.4901 7.35945 18.7032 7.99592C19.9163 7.35945 21.2994 7 22.7616 7C27.4721 7 31.4064 10.7512 31.4064 15.5195C31.4064 18.1826 30.1651 20.5453 28.2599 22.094L21.9535 27.7717C20.1971 29.353 17.5366 29.3736 15.7558 27.82L9.53227 22.39Z" fill="#FFD7D8"/><path d="M8.79688 15.6132C8.79688 17.4769 9.74148 19.1248 11.1881 20.1242L17.3576 25.507C18.0905 26.1465 19.1855 26.1379 19.9084 25.4871L26.113 19.9011C27.3882 18.8892 28.2032 17.3443 28.2032 15.6132C28.2032 12.5649 25.6759 10.0938 22.5583 10.0938C20.9653 10.0938 19.5264 10.739 18.5 11.7768C17.4737 10.739 16.0348 10.0938 14.4417 10.0938C11.3242 10.0938 8.79688 12.5649 8.79688 15.6132Z" fill="#FF4B4B"/><path opacity="0.3" fill-rule="evenodd" clip-rule="evenodd" d="M14.2126 17.9925C15.4588 17.9925 16.4691 16.9524 16.4691 15.6694C16.4691 14.3863 15.4588 13.3462 14.2126 13.3462C12.9663 13.3462 11.9561 14.3863 11.9561 15.6694C11.9561 16.9524 12.9663 17.9925 14.2126 17.9925Z" fill="white"/></svg>